<?xml version="1.0" encoding="utf-8"?>
<!-- Generator: Adobe Illustrator 28.0.0, SVG Export Plug-In . SVG Version: 6.00 Build 0)  -->
<svg version="1.1" id="Capa_1" xmlns="http://www.w3.org/2000/svg" xmlns:xlink="http://www.w3.org/1999/xlink" x="0px" y="0px"
	 viewBox="0 0 121.1 148.3" style="enable-background:new 0 0 121.1 148.3;" xml:space="preserve">
<style type="text/css">
	.st0{fill:#FFFFFF;}
</style>
<path d="M0,78.9c0.3-33.4,28.5-59.7,60.7-59.7c31,0.1,60.5,25.3,60.3,61.1c-0.2,33.9-28.8,60.2-60.5,59.7
	C29.1,140.6-0.3,114.4,0,78.9"/>
<path d="M112.7,79.8c-0.6-30-24.1-52.9-53.6-52.2C29.3,28.3,7.1,53.7,8.4,81.9c1.2,27.4,24.3,51.1,54.3,49.9
	C90.3,130.7,112.6,107.9,112.7,79.8z"/>
<path class="st0" d="M112.7,79.8c-0.1,28.1-22.4,50.9-50.1,52c-30,1.2-53-22.5-54.3-49.9C7.1,53.7,29.3,28.3,59.1,27.6
	C88.7,26.9,112.1,49.8,112.7,79.8z M109.4,81.3c-1.8,0-3.4,0-5,0c-1.1,0-1.9-0.4-2-1.6c0-1.3,0.8-1.7,2-1.7c1.6,0,3.2,0,4.8,0
	c0.2-10.8-5.4-24.3-13.2-31.7c-1.4,1.4-2.7,2.9-4.2,4.3c-1,1-2.1,0.9-2.7-0.1c-0.6-0.9-0.2-1.6,0.5-2.3c1.4-1.4,2.8-2.8,4.3-4.3
	c-9.1-8.2-19.5-12.6-31.7-13.1c0,1.7,0,3.3,0,4.9c0,1.1-0.4,2-1.7,2c-1.2,0-1.6-0.9-1.6-2c0-1.6,0-3.2,0-5
	C46.6,31.4,36.1,35.8,27,44.1c1.5,1.5,2.9,2.8,4.3,4.1c0.8,0.8,1.2,1.7,0.3,2.6c-0.9,1-1.8,0.5-2.6-0.3c-1.4-1.4-2.7-2.8-4.2-4.3
	C16.6,55.3,12.2,65.7,11.7,78c1.8,0,3.3,0,4.8,0c1.2,0,2.2,0.3,2.2,1.7c0,1.3-1,1.7-2.2,1.6c-1.5,0-3.1,0-4.7,0
	c0.6,12.3,5,22.8,13.2,31.6c1.5-1.5,2.9-2.8,4.2-4.2c0.8-0.8,1.7-1.3,2.6-0.3c0.9,0.9,0.5,1.9-0.4,2.6c-1.4,1.3-2.9,2.7-4.4,4
	c9.3,8.4,19.7,12.8,32,13.4c0-2-0.1-3.8,0.1-5.5c0.1-0.6,0.9-1.4,1.5-1.5c0.5-0.1,1.2,0.7,1.6,1.2c0.3,0.4,0.1,1.1,0.1,1.6
	c0,1.3,0,2.7,0,4.1c12.3-0.7,22.7-5,31.9-13.4c-1.5-1.4-2.9-2.7-4.3-4c-0.9-0.8-1.4-1.8-0.3-2.7c1-0.9,1.8-0.4,2.6,0.5
	c1.3,1.4,2.6,2.7,4,4.2C104.4,104,108.8,93.6,109.4,81.3z"/>
<path d="M109.4,81.3c-0.6,12.3-5,22.7-13.3,31.8c-1.4-1.5-2.7-2.8-4-4.2c-0.8-0.8-1.7-1.4-2.6-0.5c-1,1-0.5,1.9,0.3,2.7
	c1.4,1.3,2.8,2.6,4.3,4c-9.2,8.4-19.6,12.7-31.9,13.4c0-1.5,0-2.8,0-4.1c0-0.6,0.1-1.2-0.1-1.6c-0.4-0.6-1.1-1.3-1.6-1.2
	c-0.6,0.1-1.4,0.9-1.5,1.5c-0.2,1.7-0.1,3.5-0.1,5.5c-12.3-0.6-22.7-5-32-13.4c1.5-1.4,2.9-2.7,4.4-4c0.8-0.8,1.3-1.7,0.4-2.6
	c-0.9-0.9-1.8-0.5-2.6,0.3c-1.4,1.3-2.7,2.7-4.2,4.2c-8.2-8.9-12.5-19.3-13.2-31.6c1.7,0,3.2,0,4.7,0c1.2,0,2.2-0.3,2.2-1.6
	c0-1.3-1-1.7-2.2-1.7c-1.5,0-3,0-4.8,0c0.5-12.3,5-22.7,13.2-31.8c1.5,1.5,2.8,2.9,4.2,4.3c0.8,0.8,1.7,1.3,2.6,0.3
	c0.9-0.9,0.5-1.9-0.3-2.6c-1.4-1.3-2.8-2.6-4.3-4.1c9.1-8.3,19.6-12.7,31.9-13.2c0,1.8,0,3.4,0,5c0,1.1,0.3,2,1.6,2
	c1.3,0,1.7-0.9,1.7-2c0-1.6,0-3.2,0-4.9c12.2,0.6,22.6,5,31.7,13.1c-1.5,1.5-2.9,2.9-4.3,4.3c-0.6,0.7-1.1,1.4-0.5,2.3
	c0.6,1,1.7,1.1,2.7,0.1c1.4-1.4,2.8-2.9,4.2-4.3c7.8,7.4,13.4,20.9,13.2,31.7c-1.6,0-3.2,0-4.8,0c-1.2,0-2,0.4-2,1.7
	c0,1.2,0.8,1.6,2,1.6C106,81.3,107.6,81.3,109.4,81.3z M62.2,59c0-4.3,0-8.7,0-13c0-0.5,0.1-1.2-0.2-1.6c-0.4-0.5-1.1-1.1-1.6-1
	c-0.5,0-1.1,0.7-1.4,1.3c-0.2,0.3-0.1,0.9-0.1,1.3c0,8.7,0,17.4,0,26.1c0,0.9-0.2,1.5-1.1,2c-3,1.4-4.3,4.6-3.1,7.7
	c0.3,0.9,0.1,1.3-0.5,1.9c-2.8,2.7-5.5,5.5-8.2,8.2c-1.1,1.1-1.2,2.1-0.4,2.9c1.1,0.9,1.9,0.3,2.7-0.5c2.6-2.6,5.3-5.2,7.9-7.9
	c0.8-0.8,1.4-1.1,2.6-0.7c3.2,1,6.4-0.6,7.7-3.6c1.2-3.1-0.1-6.5-3.2-8c-0.9-0.4-1-0.9-1-1.8C62.2,67.8,62.2,63.4,62.2,59z"/>
<path class="st0" d="M62.2,59c0,4.4,0,8.9,0,13.3c0,0.8,0.1,1.3,1,1.8c3.1,1.5,4.4,4.9,3.2,8c-1.2,3-4.5,4.7-7.7,3.6
	c-1.2-0.4-1.8-0.1-2.6,0.7c-2.6,2.7-5.3,5.3-7.9,7.9c-0.8,0.8-1.7,1.4-2.7,0.5c-0.8-0.7-0.7-1.8,0.4-2.9c2.7-2.7,5.5-5.5,8.2-8.2
	c0.6-0.6,0.8-1,0.5-1.9c-1.2-3.1,0.1-6.3,3.1-7.7c1-0.4,1.1-1,1.1-2c0-8.7,0-17.4,0-26.1c0-0.5-0.1-1,0.1-1.3
	c0.3-0.5,0.9-1.2,1.4-1.3c0.5,0,1.2,0.5,1.6,1c0.3,0.4,0.2,1.1,0.2,1.6C62.2,50.3,62.2,54.6,62.2,59z M60.5,82.6c1.7,0,3-1.2,3-2.9
	c0-1.7-1.3-3-2.9-3c-1.7,0-3.1,1.3-3.1,3C57.5,81.3,58.8,82.6,60.5,82.6z"/>
<path d="M60.5,82.6c-1.7,0-3-1.3-3-2.9c0-1.7,1.4-3,3.1-3c1.6,0,2.9,1.4,2.9,3C63.5,81.4,62.2,82.6,60.5,82.6z"/>
</svg>
